<svg width="20" height="20" viewBox="0 0 20 20" fill="none" xmlns="http://www.w3.org/2000/svg">
<path fill-rule="evenodd" clip-rule="evenodd" d="M18.7722 12.5167C18.8258 12.2037 18.8526 11.8778 18.8392 11.5649C18.8124 11.3954 18.7856 11.2259 18.6784 11.0564C18.6784 11.0564 18.6382 10.8869 18.6114 10.7826C18.5578 10.587 18.4774 10.4045 18.397 10.222C18.3288 10.1059 18.2769 9.99503 18.2274 9.88948C18.1991 9.82908 18.1717 9.77041 18.1424 9.71347C17.794 9.03548 17.0838 8.18801 16.5075 7.62737C16.2127 7.34053 15.7973 6.97546 15.4891 6.72774C15.3417 6.59736 14.3635 5.90634 14.2026 5.80203C13.546 5.39785 12.8626 5.01974 12.1524 4.68075C11.2411 4.26353 10.3031 3.89847 9.33828 3.61163C7.82403 3.16833 6.34997 2.90757 4.79552 2.95972C4.00489 2.99884 3.22767 3.11618 2.46384 3.31175C1.94122 3.44213 1.59281 3.66378 1.3516 4.081C1.231 4.28961 1.11039 4.51126 1.17739 4.74594C1.231 4.94151 1.53921 5.01974 1.75361 5.04582C1.96802 5.0719 2.47724 5.09797 2.61124 4.94151C2.66485 4.87632 2.66485 4.78506 2.61124 4.71987C2.54424 4.6286 2.43704 4.56341 2.31643 4.55037C2.25371 4.53928 2.17156 4.53054 2.09273 4.52215C1.9863 4.51084 1.88591 4.50016 1.84742 4.48518C1.83402 4.47214 1.81392 4.46562 1.79884 4.46073C1.78377 4.45584 1.77371 4.45259 1.78041 4.44607L1.80722 4.41999C1.86082 4.38088 1.92782 4.3548 1.99482 4.34176C2.07523 4.32872 2.16903 4.30265 2.24943 4.27657C2.83905 4.10708 4.01829 4.09404 4.55431 4.10708C6.61798 4.19834 8.64146 4.64164 10.5443 5.42393C12.474 6.19317 14.6583 7.51002 15.9313 9.10067C16.4137 9.71346 17.0301 10.7044 17.0971 11.5388C17.1642 12.282 16.9229 13.0121 16.4271 13.5727C16.0385 13.9639 15.5829 14.2898 15.0603 14.5115C13.8542 15.0591 12.407 15.1764 11.1071 15.1373C10.9329 15.1373 10.2897 15.0852 10.1423 15.0591C9.8743 15.02 9.53929 14.9548 9.53929 14.9548L9.45888 11.0434C9.45888 11.0434 9.8743 11.0564 10.1557 11.0694C10.8793 11.1085 12.3936 11.3563 13.144 11.6431C13.3048 11.7083 13.479 11.7996 13.4924 11.956C13.4924 12.0734 13.3986 12.1777 13.2914 12.2689C13.2378 12.3211 13.1842 12.3602 13.1172 12.3863C12.9966 12.4384 12.876 12.5036 12.7554 12.5818C12.7152 12.647 12.7152 12.7122 12.7688 12.7644C12.9162 12.8817 13.3986 12.9469 13.5192 12.9339C13.9614 12.8948 14.3635 12.647 14.5779 12.2689C14.7655 11.9821 14.7923 11.6301 14.6583 11.3172C14.5243 10.913 14.0954 10.5349 13.6398 10.3132C13.0904 10.0394 12.1256 9.83081 11.6298 9.75258C11.2411 9.68739 10.8525 9.63524 10.4639 9.6222C10.0753 9.60916 9.45888 9.6222 9.45888 9.6222C9.45888 9.6222 9.44548 9.08764 9.41868 8.73561C9.37848 8.16193 9.20427 7.01457 8.66826 6.68862C8.57445 6.62343 8.45385 6.63647 8.37345 6.7147C8.27586 6.84525 8.18938 7.27828 8.15443 7.45329C8.15099 7.47054 8.14804 7.48528 8.14564 7.49698C8.10544 7.73167 7.97143 8.89206 7.97143 9.0746C7.97143 9.25713 7.95803 9.75258 7.94463 9.76562C7.94463 9.76562 7.94463 9.77865 7.93123 9.77865C7.91783 9.79169 7.56942 9.85688 7.34161 9.88296C6.65819 10.0264 6.00156 10.222 5.35834 10.4697C4.86252 10.6783 4.1255 11.0564 3.92449 11.5518C3.77708 11.9039 3.84409 12.2037 4.03169 12.5427C4.2863 12.9469 4.60791 13.325 4.96973 13.6379C5.10373 13.7683 5.69335 14.2377 5.82736 14.342C6.34997 14.7201 6.91279 15.0461 7.48901 15.3329C7.69002 15.4242 7.91783 15.5285 7.91783 15.5285C7.91783 15.5285 7.97143 15.9848 8.01163 16.2456C8.07863 16.5715 8.18584 16.8584 8.49405 16.9887C8.69506 17.0539 8.90946 17.067 9.11047 17.0148C9.27128 17.0018 9.40528 16.8975 9.47228 16.7671C9.51248 16.6758 9.53929 16.5715 9.55269 16.4803C9.56609 16.3499 9.56609 16.1543 9.56609 16.1543C9.56609 16.1543 10.0619 16.2586 10.3969 16.3238C11.3751 16.4933 12.3668 16.5194 13.3584 16.402C14.7253 16.2456 16.3065 15.7501 17.325 14.8896C17.6868 14.5636 18.0084 14.1986 18.263 13.7814C18.3836 13.5727 18.5042 13.3641 18.598 13.1425C18.665 12.9339 18.732 12.7253 18.7722 12.5167ZM6.92619 11.1998C7.34161 11.1607 7.93123 11.1216 7.93123 11.1216L7.90443 12.282C7.90443 13.4033 7.93123 14.5245 7.93123 14.5245C7.93123 14.5245 7.52922 14.3811 7.27461 14.2768C6.49738 13.9378 5.77375 13.5076 5.10373 12.9991C4.99653 12.9078 4.58111 12.5167 4.51411 12.4384C4.39351 12.295 4.2729 12.1516 4.3131 11.9821C4.3533 11.8126 4.68832 11.6822 4.86252 11.617C5.53255 11.4084 6.22937 11.278 6.92619 11.1998Z" fill="#09194D"/>
</svg>
